<?xml version="1.0" encoding="utf-8"?><!-- Modified SVG -->
<svg width="800px" height="800px" viewBox="0 0 24 24" fill="none" xmlns="http://www.w3.org/2000/svg">
  <path fill-rule="evenodd" clip-rule="evenodd" d="M7.8734 22.1995C7.2919 22.5979 6.5537 23.0228 5.6879 23.3511C4.0097 23.9874 2.756 24.0245 2.1764 23.9917C0.88332 23.9184 0.709334 23.0987 1.40284 22.0816C2.1946 20.9202 2.9575 19.6077 2.8821 18.1551C1.69404 16.3983 1 14.2788 1 12C1 5.92487 5.92487 1 12 1C18.0751 1 23 5.92487 23 12C23 18.0751 18.0751 23 12 23C10.5422 23 9.1487 22.7159 7.8734 22.1995ZM12 3C16.9706 3 21 7.02944 21 12C21 16.9706 16.9706 21 12 21C10.6303 21 9.3346 20.6947 8.175 20.1494C7.8365 19.9902 7.4374 20.0332 7.1406 20.261C6.6176 20.6624 5.8761 21.1407 4.9788 21.481C4.5889 21.6288 4.2326 21.7356 3.9144 21.8123C4.2468 21.2051 4.5833 20.4818 4.7384 19.8011C4.8982 19.0998 5.1378 17.8782 4.672 17.2262C3.6192 15.7531 3 13.9503 3 12C3 7.02944 7.02944 3 12 3ZM13.25 16.75C13.25 17.4404 12.6904 18 12 18C11.3096 18 10.75 17.4404 10.75 16.75C10.75 16.0596 11.3096 15.5 12 15.5C12.6904 15.5 13.25 16.0596 13.25 16.75ZM10.1353 8.96435C10.3999 8.45957 11.0831 8 12 8C13.283 8 14 8.83454 14 9.5C14 10.1655 13.283 11 12 11C11.4477 11 11 11.4477 11 12V13C11 13.5523 11.4477 14 12 14C12.5523 14 13 13.5523 13 13V12.8866C14.6316 12.5135 16 11.2471 16 9.5C16 7.40403 14.0307 6 12 6C10.4566 6 9.0252 6.77452 8.36398 8.03565C8.10753 8.52478 8.29615 9.1292 8.78528 9.38565C9.27442 9.64211 9.87883 9.45348 10.1353 8.96435Z" fill="#000000"/>
</svg>
